<?xml version="1.0" encoding="utf-8"?>
<!-- Generator: Adobe Illustrator 25.3.1, SVG Export Plug-In . SVG Version: 6.00 Build 0)  -->
<svg version="1.1" id="Layer_1" xmlns="http://www.w3.org/2000/svg" xmlns:xlink="http://www.w3.org/1999/xlink" x="0px" y="0px"
	 viewBox="0 0 50 50" style="enable-background:new 0 0 50 50;" xml:space="preserve">
<style type="text/css">
	.st0{fill:#FFFFFF;}
</style>
<path class="st0" d="M11.6,36.8c-3.2,0-5.9-1.2-8.1-3.5c-2.2-2.3-3.3-5.2-3.3-8.4c0-3.2,1.1-6,3.3-8.3s4.9-3.4,8.1-3.4
	c1.3,0,2.6,0.2,3.8,0.6s2.3,1.1,3.2,2l4.2,4L19.4,23l-3.8-3.7c-0.5-0.5-1.1-0.9-1.9-1.1c-0.7-0.2-1.4-0.4-2.2-0.4
	c-1.9,0-3.5,0.7-4.8,2.1c-1.3,1.4-1.9,3-1.9,5c0,2,0.6,3.7,1.9,5.1c1.3,1.4,2.9,2.1,4.8,2.1c0.7,0,1.4-0.1,2.1-0.4
	c0.7-0.2,1.3-0.6,1.9-1.1l15.8-14.9c0.9-0.9,2-1.6,3.2-2c1.2-0.4,2.5-0.7,3.7-0.6c3.2,0,6,1.1,8.2,3.4s3.3,5.1,3.3,8.3
	c0,3.3-1.1,6.1-3.3,8.4c-2.2,2.3-4.9,3.5-8.2,3.5c-1.3,0-2.5-0.2-3.8-0.6s-2.3-1.1-3.2-2l-4-4l3.4-3.2l3.7,3.7
	c0.5,0.5,1.1,0.9,1.8,1.1c0.7,0.2,1.4,0.4,2.2,0.4c1.9,0,3.6-0.7,4.8-2.1c1.3-1.4,2-3.1,2-5.1c0-1.9-0.7-3.6-2-5
	c-1.3-1.4-2.9-2.1-4.8-2.1c-0.7,0-1.4,0.1-2.1,0.4s-1.3,0.6-1.8,1.1L18.6,34.3c-0.9,0.9-2,1.5-3.2,1.9
	C14.1,36.6,12.9,36.8,11.6,36.8z"/>
</svg>
